<?xml version="1.0" encoding="utf-8"?>
<!-- Generator: Adobe Illustrator 21.1.0, SVG Export Plug-In . SVG Version: 6.00 Build 0)  -->
<svg version="1.1" id="Layer_1" xmlns="http://www.w3.org/2000/svg" xmlns:xlink="http://www.w3.org/1999/xlink" x="0px" y="0px"
	 viewBox="0 0 230.6 48.7" style="enable-background:new 0 0 230.6 48.7;" xml:space="preserve">
<style type="text/css">
	.st0{fill:#FFFFFF;}
	.st1{fill:#121212;}
	.st2{fill:none;}
	.st3{clip-path:url(#SVGID_2_);fill:#FFFFFF;}
	.st4{clip-path:url(#SVGID_2_);fill:url(#SVGID_3_);}
	.st5{clip-path:url(#SVGID_2_);fill:url(#SVGID_4_);}
	.st6{clip-path:url(#SVGID_2_);fill:url(#SVGID_5_);}
	.st7{clip-path:url(#SVGID_2_);fill:url(#SVGID_6_);}
	.st8{clip-path:url(#SVGID_2_);fill:url(#SVGID_7_);}
	.st9{clip-path:url(#SVGID_9_);fill:#FFFFFF;}
	.st10{clip-path:url(#SVGID_9_);fill:url(#SVGID_10_);}
	.st11{clip-path:url(#SVGID_9_);fill:url(#SVGID_11_);}
	.st12{clip-path:url(#SVGID_9_);fill:url(#SVGID_12_);}
	.st13{clip-path:url(#SVGID_9_);fill:url(#SVGID_13_);}
	.st14{clip-path:url(#SVGID_9_);fill:url(#SVGID_14_);}
	.st15{clip-path:url(#SVGID_16_);fill:#FFFFFF;}
	.st16{clip-path:url(#SVGID_16_);fill:url(#SVGID_17_);}
	.st17{clip-path:url(#SVGID_16_);fill:url(#SVGID_18_);}
	.st18{clip-path:url(#SVGID_16_);fill:url(#SVGID_19_);}
	.st19{clip-path:url(#SVGID_16_);fill:url(#SVGID_20_);}
	.st20{clip-path:url(#SVGID_16_);fill:url(#SVGID_21_);}
	.st21{fill:none;stroke:#FFFFFF;stroke-width:0.6394;stroke-miterlimit:10;}
	.st22{fill:none;stroke:#000000;stroke-width:0.6394;stroke-miterlimit:10;}
	.st23{clip-path:url(#SVGID_23_);fill:#FFFFFF;}
	.st24{clip-path:url(#SVGID_23_);fill:url(#SVGID_24_);}
	.st25{clip-path:url(#SVGID_23_);fill:url(#SVGID_25_);}
	.st26{clip-path:url(#SVGID_23_);fill:url(#SVGID_26_);}
	.st27{clip-path:url(#SVGID_23_);fill:url(#SVGID_27_);}
	.st28{clip-path:url(#SVGID_23_);fill:url(#SVGID_28_);}
	.st29{fill:none;stroke:#FFFFFF;stroke-width:1.3223;}
	.st30{clip-path:url(#SVGID_30_);fill:#FFFFFF;}
	.st31{clip-path:url(#SVGID_30_);fill:url(#SVGID_31_);}
	.st32{clip-path:url(#SVGID_30_);fill:url(#SVGID_32_);}
	.st33{clip-path:url(#SVGID_30_);fill:url(#SVGID_33_);}
	.st34{clip-path:url(#SVGID_30_);fill:url(#SVGID_34_);}
	.st35{clip-path:url(#SVGID_30_);fill:url(#SVGID_35_);}
	.st36{fill:#99C23C;}
	.st37{fill:#58C7D8;}
	.st38{fill:#FF0076;}
	.st39{clip-path:url(#SVGID_37_);fill:#FFFFFF;}
	.st40{clip-path:url(#SVGID_37_);fill:url(#SVGID_38_);}
	.st41{clip-path:url(#SVGID_37_);fill:url(#SVGID_39_);}
	.st42{clip-path:url(#SVGID_37_);fill:url(#SVGID_40_);}
	.st43{clip-path:url(#SVGID_37_);fill:url(#SVGID_41_);}
	.st44{clip-path:url(#SVGID_37_);fill:url(#SVGID_42_);}
	.st45{font-family:'Gotham-Book';}
	.st46{font-size:6.2315px;}
</style>
<g>
	<g>
		<path class="st0" d="M9.3,8.8c0,0.3,0,0.6-0.1,0.9C9.1,10,9,10.1,8.8,10.1H3.2c-0.2,0-0.3,0.1-0.3,0.3v12.1c0,0.2,0.1,0.3,0.2,0.3
			h5.1c0.3,0,0.5,0.4,0.5,1.2c0,0.8-0.2,1.2-0.5,1.2h-5c-0.2,0-0.3,0.1-0.3,0.4v15c0,0.1-0.1,0.2-0.4,0.4c-0.3,0.2-0.6,0.2-1.1,0.2
			c-0.4,0-0.8-0.1-1.1-0.2C0.1,40.9,0,40.8,0,40.6V8.2c0-0.3,0.1-0.5,0.4-0.5h8.4C9.1,7.7,9.3,8.1,9.3,8.8z"/>
		<path class="st0" d="M32.8,36.8c0,1.4-0.4,2.5-1.1,3.2c-0.7,0.7-1.8,1-3.2,1h-3.2c-1.4,0-2.4-0.3-3.1-1c-0.7-0.6-1.1-1.7-1.1-3.1
			v-29c0-0.1,0.1-0.2,0.4-0.3c0.3-0.1,0.6-0.1,1-0.1c0.4,0,0.7,0,1,0.1C24,7.7,24.2,7.8,24.2,8v29c0,0.4,0.1,0.8,0.4,1.1
			c0.3,0.3,0.7,0.4,1.2,0.4h2.5c0.5,0,0.9-0.2,1.2-0.5c0.3-0.4,0.4-0.8,0.4-1.3V7.9c0-0.1,0.1-0.2,0.4-0.3c0.3-0.1,0.6-0.1,1.1-0.1
			c0.4,0,0.8,0,1.1,0.1c0.3,0.1,0.4,0.2,0.4,0.4V36.8z"/>
		<path class="st0" d="M55,39.8c0,0.8-0.2,1.2-0.5,1.2h-8.2c-0.3,0-0.4-0.1-0.4-0.4V7.9c0-0.1,0.1-0.2,0.4-0.3
			c0.2-0.1,0.6-0.2,1.1-0.2c0.5,0,0.8,0.1,1.1,0.2c0.3,0.1,0.4,0.2,0.4,0.4v30.2c0,0.2,0.1,0.3,0.2,0.3h5.5C54.8,38.6,55,39,55,39.8
			z"/>
		<path class="st0" d="M75.6,39.8c0,0.8-0.2,1.2-0.5,1.2h-8.2c-0.3,0-0.4-0.1-0.4-0.4V7.9c0-0.1,0.1-0.2,0.4-0.3
			c0.2-0.1,0.6-0.2,1.1-0.2c0.5,0,0.8,0.1,1.1,0.2c0.3,0.1,0.4,0.2,0.4,0.4v30.2c0,0.2,0.1,0.3,0.2,0.3h5.5
			C75.4,38.6,75.6,39,75.6,39.8z"/>
		<path class="st0" d="M149.2,14.5c-0.4,0-0.7,0-1-0.1c-0.3-0.1-0.4-0.2-0.4-0.4v-2.2c0-0.4-0.1-0.8-0.3-1.2
			c-0.2-0.4-0.6-0.5-1.1-0.5h-2.7c-0.5,0-0.9,0.2-1.1,0.5c-0.3,0.4-0.4,0.8-0.4,1.3V37c0,0.4,0.1,0.8,0.4,1.1
			c0.3,0.3,0.7,0.4,1.2,0.4h2.4c0.6,0,1-0.1,1.2-0.4c0.2-0.3,0.3-0.6,0.3-1V29c0-0.3-0.2-0.4-0.5-0.4h-3.2c-0.1,0-0.2-0.1-0.3-0.2
			c-0.1-0.2-0.1-0.5-0.1-1.1c0-0.5,0-0.8,0.1-1c0.1-0.2,0.2-0.2,0.4-0.2h5.3c0.6,0,0.9,0.2,1.1,0.5c0.1,0.4,0.2,0.7,0.2,1.1v9.2
			c0,1.4-0.4,2.5-1.1,3.2c-0.7,0.7-1.7,1-3.1,1h-3.1c-2.8,0-4.2-1.3-4.2-4V11.8c0-1.4,0.3-2.5,1-3.1c0.7-0.7,1.7-1,3.2-1h3.1
			c1.4,0,2.4,0.3,3.1,0.9c0.7,0.6,1.1,1.6,1.1,3V14c0,0.1-0.1,0.2-0.4,0.3C150,14.4,149.6,14.5,149.2,14.5z"/>
		<path class="st0" d="M173.1,38.8c0.1,0.1,0.1,0.5,0.1,1c0,0.5,0,0.8-0.1,1c-0.1,0.2-0.2,0.2-0.3,0.2l-8.4,0
			c-0.3,0-0.4-0.1-0.4-0.3V8.1c0-0.3,0.1-0.4,0.4-0.4h8.3c0.2,0,0.3,0.1,0.4,0.3c0.1,0.2,0.1,0.5,0.1,0.8c0,0.3,0,0.6-0.1,0.8
			c-0.1,0.3-0.2,0.4-0.4,0.4h-5.6c-0.2,0-0.3,0.1-0.3,0.3v12.1c0,0.2,0.1,0.3,0.2,0.3h5.1c0.1,0,0.2,0.1,0.3,0.2
			c0.1,0.1,0.2,0.5,0.2,1c0,0.5-0.1,0.9-0.2,1c-0.1,0.1-0.2,0.2-0.4,0.2h-4.9c-0.2,0-0.3,0.1-0.3,0.4v12.6c0,0.2,0.1,0.3,0.3,0.3
			h5.5C172.9,38.6,173,38.6,173.1,38.8z"/>
		<path class="st0" d="M190,7.5c1.1,0,1.9,0.2,2.3,0.5c0.4,0.4,0.6,0.8,0.7,1.2c0,0.1,0.1,0.6,0.2,1.5c0.1,0.9,0.2,2.2,0.4,3.6
			c0.2,1.5,0.3,3.2,0.6,5c0.2,1.9,0.4,3.8,0.6,5.7c0.2,1.9,0.4,3.9,0.6,5.7c0.2,1.9,0.4,3.5,0.6,5c0.2,1.5,0.3,2.7,0.4,3.5
			c0.1,0.9,0.1,1.4,0.1,1.4c0,0.1-0.1,0.2-0.3,0.3c-0.2,0.1-0.6,0.2-1.2,0.2c-0.6,0-1,0-1.1-0.1c-0.2-0.1-0.3-0.2-0.3-0.2
			c0,0,0-0.4-0.1-1.1c-0.1-0.7-0.2-1.4-0.3-2.2c-0.1-0.8-0.2-1.5-0.3-2.2c-0.1-0.7-0.1-1.1-0.1-1.2c0-0.2-0.1-0.3-0.3-0.3h-4.8
			c-0.3,0-0.4,0.1-0.4,0.3c0,0.1,0,0.4-0.1,1.1c-0.1,0.7-0.2,1.4-0.3,2.2c-0.1,0.8-0.2,1.5-0.3,2.2c-0.1,0.7-0.1,1-0.1,1.1
			c0,0.1-0.1,0.2-0.3,0.3c-0.2,0.1-0.6,0.1-1.2,0.1c-0.6,0-1,0-1.2-0.1c-0.2-0.1-0.2-0.2-0.2-0.3c0,0,0-0.5,0.1-1.4
			c0.1-0.9,0.2-2.1,0.4-3.5c0.2-1.5,0.4-3.1,0.6-5c0.2-1.9,0.4-3.8,0.6-5.8c0.2-2,0.4-3.9,0.7-5.8c0.2-1.9,0.4-3.5,0.6-5
			c0.2-1.5,0.3-2.7,0.4-3.6c0.1-0.9,0.2-1.4,0.2-1.5c0.1-0.5,0.3-1,0.7-1.3C188.2,7.6,188.9,7.5,190,7.5z M192.1,31.4
			c0.3,0,0.4-0.2,0.3-0.5c0,0,0-0.4-0.1-1.2c-0.1-0.8-0.2-1.7-0.4-2.9c-0.1-1.2-0.3-2.5-0.5-3.9c-0.2-1.4-0.4-2.8-0.5-4.2
			c-0.2-1.4-0.3-2.6-0.5-3.8c-0.1-1.2-0.2-2-0.3-2.6c0-0.3-0.1-0.4-0.1-0.3c0,0-0.1,0.1-0.1,0.3c-0.1,0.6-0.2,1.5-0.3,2.6
			c-0.1,1.2-0.3,2.4-0.5,3.8c-0.2,1.4-0.3,2.8-0.5,4.2c-0.2,1.4-0.4,2.7-0.5,3.9c-0.1,1.2-0.3,2.2-0.4,2.9c-0.1,0.8-0.1,1.2-0.1,1.2
			c0,0.3,0.1,0.4,0.3,0.4H192.1z"/>
		<path class="st0" d="M218,21.8c0,0.5-0.2,1-0.5,1.6c-0.3,0.5-0.8,0.8-1.5,0.8c0.6,0,1.1,0.2,1.5,0.7c0.3,0.4,0.5,0.9,0.5,1.4v14.5
			c0,0.4-0.5,0.5-1.4,0.5c-0.4,0-0.8,0-1.1-0.1c-0.3-0.1-0.4-0.2-0.4-0.4V26.4c0-0.3,0-0.5-0.1-0.6c-0.1-0.2-0.3-0.3-0.6-0.3h-4.4
			c-0.2,0-0.3,0.1-0.3,0.2v15c0,0.1-0.1,0.2-0.4,0.3c-0.3,0.1-0.6,0.2-1.1,0.2c-0.4,0-0.8-0.1-1.1-0.2c-0.3-0.1-0.4-0.2-0.4-0.4V8
			c0-0.2,0.1-0.3,0.4-0.3h7.7c1.1,0,2,0.4,2.5,1.1c0.6,0.7,0.8,1.5,0.8,2.4V21.8z M213.7,23c0.9,0,1.3-0.4,1.3-1.3V11.5
			c0-0.4-0.1-0.7-0.3-1c-0.2-0.3-0.6-0.4-1.2-0.4h-3.7c-0.2,0-0.3,0.1-0.3,0.3v12.3c0,0.2,0.1,0.3,0.3,0.3H213.7z"/>
		<g>
			<path class="st2" d="M107.1,2C94.8,2,84.7,12,84.7,24.4c0,12.3,10,22.4,22.4,22.4c12.3,0,22.4-10,22.4-22.4
				C129.5,12,119.5,2,107.1,2z M122.2,39.4c-2,2-4.2,3.5-6.8,4.6c-2.6,1.1-5.4,1.7-8.3,1.7c-2.9,0-5.7-0.6-8.3-1.7
				c-2.5-1.1-4.8-2.6-6.8-4.6c-2-2-3.5-4.2-4.6-6.8c-1.1-2.6-1.7-5.4-1.7-8.3c0-2.9,0.6-5.7,1.7-8.3c1.1-2.5,2.6-4.8,4.6-6.8
				c2-2,4.2-3.5,6.8-4.6c2.6-1.1,5.4-1.7,8.3-1.7c2.9,0,5.7,0.6,8.3,1.7c2.5,1.1,4.8,2.6,6.8,4.6c2,2,3.5,4.2,4.6,6.8
				c1.1,2.6,1.7,5.4,1.7,8.3c0,2.9-0.6,5.7-1.7,8.3C125.7,35.2,124.1,37.5,122.2,39.4z"/>
			<path class="st0" d="M107.1,0C93.7,0,82.7,10.9,82.7,24.4c0,13.5,10.9,24.4,24.4,24.4c13.5,0,24.4-10.9,24.4-24.4
				C131.5,10.9,120.6,0,107.1,0z M107.1,46.7c-12.3,0-22.4-10-22.4-22.4C84.7,12,94.8,2,107.1,2c12.3,0,22.4,10,22.4,22.4
				C129.5,36.7,119.5,46.7,107.1,46.7z"/>
			<g>
				<defs>
					<path id="SVGID_36_" d="M117.4,11.9c-0.1,0-0.1-0.1-0.2-0.1L107.8,24l2.3,1.7L97.7,38.8h9.9h9.5V20.3l4.1,2.5l3.8-6.4
						L117.4,11.9z"/>
				</defs>
				<clipPath id="SVGID_2_">
					<use xlink:href="#SVGID_36_"  style="overflow:visible;"/>
				</clipPath>
				<circle class="st3" cx="119.3" cy="21.6" r="29.7"/>
				
					<linearGradient id="SVGID_3_" gradientUnits="userSpaceOnUse" x1="1672.2307" y1="2615.5273" x2="1731.5809" y2="2615.5273" gradientTransform="matrix(0 -1 1 0 -2496.1868 1723.509)">
					<stop  offset="0.2025" style="stop-color:#00869B;stop-opacity:0.52"/>
					<stop  offset="0.2545" style="stop-color:#346B94;stop-opacity:0.5729"/>
					<stop  offset="0.3154" style="stop-color:#694F8C;stop-opacity:0.6347"/>
					<stop  offset="0.377" style="stop-color:#973785;stop-opacity:0.6974"/>
					<stop  offset="0.4383" style="stop-color:#BC2380;stop-opacity:0.7596"/>
					<stop  offset="0.4989" style="stop-color:#DA147B;stop-opacity:0.8213"/>
					<stop  offset="0.5589" style="stop-color:#EE0978;stop-opacity:0.8822"/>
					<stop  offset="0.6179" style="stop-color:#FB0277;stop-opacity:0.9422"/>
					<stop  offset="0.6748" style="stop-color:#FF0076"/>
				</linearGradient>
				<circle class="st4" cx="119.3" cy="21.6" r="29.7"/>
				<linearGradient id="SVGID_4_" gradientUnits="userSpaceOnUse" x1="101.1492" y1="46.6004" x2="101.1492" y2="-4.4471">
					<stop  offset="0.3742" style="stop-color:#00869B;stop-opacity:0.28"/>
					<stop  offset="0.7607" style="stop-color:#FF0076"/>
				</linearGradient>
				<rect x="99.2" y="-4.4" class="st5" width="3.8" height="51"/>
				<linearGradient id="SVGID_5_" gradientUnits="userSpaceOnUse" x1="108.381" y1="46.6004" x2="108.381" y2="-4.4471">
					<stop  offset="0.3742" style="stop-color:#00869B;stop-opacity:0.28"/>
					<stop  offset="0.7607" style="stop-color:#FF0076"/>
				</linearGradient>
				<rect x="106.5" y="-4.4" class="st6" width="3.8" height="51"/>
				<linearGradient id="SVGID_6_" gradientUnits="userSpaceOnUse" x1="115.6123" y1="46.6004" x2="115.6123" y2="-4.4471">
					<stop  offset="0.3742" style="stop-color:#00869B;stop-opacity:0.28"/>
					<stop  offset="0.7607" style="stop-color:#FF0076"/>
				</linearGradient>
				<rect x="113.7" y="-4.4" class="st7" width="3.8" height="51"/>
				<linearGradient id="SVGID_7_" gradientUnits="userSpaceOnUse" x1="123.1202" y1="46.6004" x2="123.1202" y2="-4.4471">
					<stop  offset="0.3742" style="stop-color:#00869B;stop-opacity:0.28"/>
					<stop  offset="0.7607" style="stop-color:#FF0076"/>
				</linearGradient>
				<rect x="121.2" y="-4.4" class="st8" width="3.8" height="51"/>
			</g>
		</g>
	</g>
	<text transform="matrix(1 0 0 1 221.1144 12.8792)" class="st0 st45 st46">TM</text>
	<path class="st0" d="M103.7,24.9l2.2,1.8L97.2,38V20L93,22.5l-3.8-6.4l7.6-4.6c0.5-0.3,1.1-0.5,1.7-0.7l4.1-1
		c0.8,1.1,2.4,1.7,4.2,1.7c1.8,0,3.3-0.5,4.2-1.7l4.1,1c0.5,0.1,1,0.3,1.5,0.6L103.7,24.9z"/>
</g>
</svg>
